<svg xmlns="http://www.w3.org/2000/svg" viewBox="0 0 64 64" id="star">
  <g>
    <path fill="#fcc667" d="m32 57.52 2-3.82 4.19-.7-3-3.08.63-4.26L32 47.57l-3.86-1.92.63 4.26-3 3.08 4.23.71zM14.21 43l2-3.82 4.25-.72-3-3.07.63-4.26L14.21 33l-3.86-1.92.65 4.29-3 3.07 4.24.72zm34.31-10.33 2-3.82 4.25-.71-3-3.08.63-4.26-3.86 1.92-3.87-1.92.63 4.26-3 3.08 4.25.71z"></path>
    <path fill="#fbae36" d="m35.8 45.65-3.12 1.55-.4 2.71 3 3.08-4.24.71-.55 1L32 57.52l2-3.82 4.19-.7-3-3.08zM18.06 31.11l-3.12 1.55-.4 2.71 3 3.07-4.24.72-.55 1L14.21 43l2-3.82 4.25-.72-3-3.07zM52.38 20.8l-3.12 1.56-.41 2.7 3 3.08-4.25.71-.54 1 1.44 2.77 2-3.82 4.25-.71-3-3.08z"></path>
    <path fill="#16244d" d="M39.14 53.29a1 1 0 0 0-.24-1l-2.67-2.72.56-3.76v-2.69a1 1 0 0 0-2 0V45L33 46v-9.83a1 1 0 0 0-2 0V46l-1.91-1v-3.9a1 1 0 0 0-2 0v4.67l.56 3.76L25 52.28a1 1 0 0 0-.23 1 1 1 0 0 0 .78.68l3.76.63L31.06 58a1 1 0 0 0 1.77 0l1.76-3.38 3.76-.62a1 1 0 0 0 .79-.71zm-5.37-.58a1 1 0 0 0-.72.53L32 55.36l-1.11-2.12a1 1 0 0 0-.72-.53l-2.36-.39 1.68-1.71a1 1 0 0 0 .27-.85l-.35-2.36 2.14 1.06a1 1 0 0 0 .89 0l2.14-1.06-.35 2.36a1 1 0 0 0 .28.85l1.67 1.71zm2.03-13.15a1 1 0 0 0 1-1v-1.73a1 1 0 0 0-2 0v1.73a1 1 0 0 0 1 1zM32 32.34a1 1 0 0 0 1-1v-2.47a1 1 0 0 0-2 0v2.47a1 1 0 0 0 1 1zM7 38.75a1 1 0 0 0 .78.68l3.76.63 1.76 3.38a1 1 0 0 0 1.77 0l1.76-3.38 3.76-.63a1 1 0 0 0 .79-.68 1 1 0 0 0-.24-1L18.49 35l.56-3.77v-2.68a1 1 0 0 0-2 0v1.92l-1.85.92v-9.76a1 1 0 0 0-2 0v9.78l-1.86-.92v-3.9a1 1 0 0 0-2 0v4.66L9.92 35l-2.67 2.74A1 1 0 0 0 7 38.75zm6.74-4.83a1 1 0 0 0 .89 0l2.14-1.06-.35 2.36a1 1 0 0 0 .28.85l1.67 1.7-2.36.4a1 1 0 0 0-.72.53l-1.1 2.11-1.09-2.11a1 1 0 0 0-.72-.53l-2.38-.4 1.68-1.7a1 1 0 0 0 .27-.85l-.35-2.36zM18.06 25a1 1 0 0 0 1-1v-1.71a1 1 0 0 0-2 0V24a1 1 0 0 0 1 1zm-3.85-7.2a1 1 0 0 0 1-1v-2.47a1 1 0 1 0-2 0v2.47a1 1 0 0 0 1 1zm27.12 10.65a1 1 0 0 0 .79.67l3.75.64 1.76 3.37a1 1 0 0 0 .89.54 1 1 0 0 0 .89-.54l1.76-3.37 3.76-.64a1 1 0 0 0 .55-1.68l-2.67-2.72.56-3.72v-2.69a1 1 0 1 0-2 0v1.92l-1.86.93v-9.84a1 1 0 0 0-2 0v9.79l-1.85-.93v-3.89a1 1 0 0 0-2 0v4.66l.56 3.77-2.67 2.72a1 1 0 0 0-.22 1.01zm6.75-4.83a1 1 0 0 0 .89 0l2.14-1.07-.35 2.37a1 1 0 0 0 .27.84l1.68 1.71-2.36.4a1 1 0 0 0-.72.52l-1.11 2.12-1.1-2.12a1 1 0 0 0-.72-.52l-2.36-.4L46 25.76a1 1 0 0 0 .28-.84l-.35-2.37zm4.3-8.91a1 1 0 0 0 1-1V12a1 1 0 1 0-2 0v1.73a1 1 0 0 0 1 .98zm-24.18-.89a1 1 0 0 0-1 1v.46h-.45a1 1 0 0 0 0 2h.45v.45a1 1 0 0 0 2 0v-.45h.46a1 1 0 0 0 0-2h-.46v-.46a1 1 0 0 0-1-1zM17.3 54.33a1 1 0 0 0 1-1v-.45h.46a1 1 0 0 0 0-2h-.46v-.46a1 1 0 0 0-2 0v.46h-.45a1 1 0 0 0 0 2h.45v.45a1 1 0 0 0 1 1zm27.8-5.77a1 1 0 0 0 1-1v-.46h.46a1 1 0 0 0 0-2h-.46v-.45a1 1 0 0 0-2 0v.45h-.45a1 1 0 0 0 0 2h.45v.46a1 1 0 0 0 1 1zM3 11.61a1 1 0 0 0 1 1h.46v.45a1 1 0 1 0 2 0v-.45h.45a1 1 0 0 0 0-2h-.45v-.46a1 1 0 0 0-2 0v.46H4a1 1 0 0 0-1 1zm57-4.67h-.46v-.46a1 1 0 1 0-2 0v.46h-.45a1 1 0 0 0 0 2h.45v.45a1 1 0 1 0 2 0v-.45H60a1 1 0 1 0 0-2zm-5.15 26.68a1 1 0 0 0-1 1v.46h-.46a1 1 0 0 0 0 2h.46v.45a1 1 0 0 0 2 0v-.45h.45a1 1 0 0 0 0-2h-.45v-.46a1 1 0 0 0-1-1zm-.64 20.07v-.46h.45a1 1 0 0 0 0-2h-.45v-.45a1 1 0 0 0-2 0v.45h-.46a1 1 0 0 0 0 2h.46v.46a1 1 0 0 0 2 0z"></path>
  </g>
</svg>
